<?xml version="1.0" standalone="no"?><!DOCTYPE svg PUBLIC "-//W3C//DTD SVG 1.1//EN" "http://www.w3.org/Graphics/SVG/1.1/DTD/svg11.dtd"><svg class="icon" width="30px" height="30.00px" viewBox="0 0 1024 1024" version="1.1" xmlns="http://www.w3.org/2000/svg"><path  d="M695.57 418.17h-9.5c-39.33 0-78.67-0.12-118 0.12-6 0.04-8.2-1.42-8.04-7.78 0.42-16.56 0.13-33.14 0.16-49.72 0-2.17 0.27-4.33 0.45-7.18h169.74v-27.93H560.24v-68.67c-23.95 1.46-46.85 2.06-69.54 4.57-12.19 1.35-14.42 5.94-14.42 18.23v45.52H310.45v28.04h165.28v64.79h-8.13c-34.39 0-68.77 0.14-103.15-0.13-6.06-0.05-8.62 1.53-7.97 7.83 0.45 4.41 0.44 8.93 0 13.34-0.59 6.04 1.98 7.51 7.66 7.49 48.73-0.18 97.47-0.1 146.2-0.1H609.58c-14.63 45.81-35.22 86.97-64.61 124.92-10.66-4.18-21.52-8.01-32.03-12.63-39.16-17.21-78.71-33.25-120.85-41.79-39.79-8.07-79.32-10.73-118.13 5.14-28.92 11.83-53.55 29.03-69.21 56.68-24.69 43.58-9.6 101.55 33.62 131.93 23.67 16.64 50.39 25.24 78.69 28.26 61.74 6.59 120.58-3.85 173.68-36.74 26.8-16.6 51.25-37.05 76.45-56.17 4.78-3.63 8.31-3.97 13.71-1.72 61.3 25.53 122.39 51.6 184.25 75.72 27.03 10.54 55.68 16.91 83.59 25.17 1.37 0.41 2.74 0.84 5.5 1.7-7.97 10.34-15.08 20.32-22.94 29.65-66.11 78.5-149.5 128.45-250.87 144.23-137.74 21.43-258.59-16.25-359.34-113.27-63.71-61.35-103.66-136.58-117.73-223.84-22.39-138.88 14.84-260.58 112.57-362.29 63.94-66.55 142.65-106.88 233.91-119.65 131.99-18.47 248.37 17.46 346.35 108.22 68.25 63.22 109.68 141.91 124.9 233.64 13.3 80.18 3.74 158.07-28.23 233.01-1.5 3.51-2.96 5.52-7.57 4.72-80.62-13.94-160.74-29.87-237.41-59.47-9.37-3.62-18.37-8.57-26.83-14-8.23-5.28-8.19-8.51-2.37-16.19 37.13-48.97 62.63-103.3 75.36-163.51 0.66-3.03 0.95-6.15 1.53-10.14z"  /><path  d="M510.35 598.73c-0.07 1.37 0.02 1.71-0.11 1.83-36.84 35.13-74.77 68.7-125.33 83.03-32.87 9.32-65.49 8.88-97.21-4.83-28.81-12.45-44.11-35.16-42.27-65.78 1.68-27.9 18.3-46.8 42.28-59.34 23.69-12.39 49.34-13.48 75.23-10.73 36.91 3.92 70.63 18.02 103.66 33.93 14.84 7.14 29.46 14.72 43.75 21.89z"  /></svg>