<?xml version="1.0" standalone="no"?><!DOCTYPE svg PUBLIC "-//W3C//DTD SVG 1.1//EN" "http://www.w3.org/Graphics/SVG/1.1/DTD/svg11.dtd"><svg class="icon" width="30px" height="30.00px" viewBox="0 0 1024 1024" version="1.1" xmlns="http://www.w3.org/2000/svg"><path  d="M363.76 305.29c0-13.79-0.54-26.67 0.1-39.48 1.78-35.45 15.75-65.86 40.23-91.3 32.08-33.33 71.84-48.68 117.75-45.91 71.39 4.3 126.72 57.24 137.26 121.96 1.67 10.27 2.15 20.76 2.72 31.17 0.42 7.49 0.08 15.03 0.08 23.57h8.3c37.57 0 75.15-0.01 112.72 0 29.54 0.01 51.22 19.12 54.86 48.56 5.44 44.09 10.69 88.2 16.12 132.29 4.22 34.21 8.73 68.38 12.87 102.59 4.15 34.19 7.88 68.44 12.03 102.63 4.12 33.95 8.78 67.83 12.68 101.8 2.16 18.76 4.87 37.68 4.43 56.45-0.58 24.8-24.94 46.04-49.84 46.04-222.27 0.02-444.55-0.01-666.82 0.04-28.37 0.01-55.39-27.19-50.71-61.12 4.24-30.74 8.45-61.47 12.73-92.21 4.21-30.25 8.54-60.49 12.71-90.75 4.13-30.02 8.05-60.07 12.19-90.09 3.67-26.66 7.56-53.28 11.23-79.94 3.64-26.42 7.11-52.86 10.7-79.29 2.48-18.26 4.43-36.62 7.7-54.74 4.3-23.85 27.31-42.19 51.84-42.25 35.38-0.09 70.76-0.02 106.13-0.02h9.99zM254 365.18c-21.59 157.01-43.13 313.69-64.72 470.71h645.97c-0.17-3.49-0.13-6.58-0.49-9.63-2.23-18.79-4.54-37.57-6.85-56.35-2.7-21.91-5.46-43.8-8.14-65.71-2.68-21.92-5.3-43.84-7.94-65.76-2.67-22.17-5.33-44.35-8-66.52-2.7-22.4-5.42-44.8-8.12-67.2-2.61-21.68-5.17-43.36-7.81-65.03-2.73-22.4-5.79-44.76-8.11-67.19-0.6-5.84-2.1-7.87-8.19-7.82-34.16 0.27-68.32 0.13-102.48 0.13h-7.23c0 10.52 0.22 19.78-0.04 29.02-0.63 22.15-22.21 36.35-42.31 27.68-12.52-5.4-18.03-15.78-18.39-29.02-0.25-9.12-0.05-18.26-0.05-27.12H423.36c0 10.04 0.27 19.53-0.07 28.99-0.46 12.85-6.6 22.43-18.61 27.19-11.48 4.55-22.41 2.87-31.92-5.53-7.32-6.46-9.74-14.83-9.69-24.22 0.04-8.87 0.01-17.74 0.01-26.63-37.24 0.01-73.03 0.01-109.08 0.01z m347.81-60.25c-0.76-15.8 0.16-31.11-2.54-45.75-6.15-33.39-26.83-55.8-58.67-66.53-32.83-11.06-63-4.04-88.82 18.98-28.19 25.13-31.11 58.18-27.65 93.29 58.71 0.01 117.35 0.01 177.68 0.01z"  /><path  d="M512.18 669c-60.03 0-120.06-0.03-180.09 0.03-10.25 0.01-19.25-2.94-26.14-10.67-7.72-8.67-8.98-18.99-4.58-29.27 5.08-11.88 15.47-16.89 27.94-17.98 1.45-0.13 2.93-0.03 4.39-0.03 119.33 0 238.65-0.01 357.98 0 16.59 0 28.63 7.36 33.17 20.16 6.54 18.45-8.22 37.46-29.65 37.7-22.2 0.25-44.41 0.06-66.62 0.06h-116.4z"  /></svg>