<?xml version="1.0" standalone="no"?><!DOCTYPE svg PUBLIC "-//W3C//DTD SVG 1.1//EN" "http://www.w3.org/Graphics/SVG/1.1/DTD/svg11.dtd"><svg class="icon" width="30px" height="30.00px" viewBox="0 0 1024 1024" version="1.1" xmlns="http://www.w3.org/2000/svg"><path  d="M786.7 353.23c-3.52 33.35-7.03 66.71-10.55 100.07-4.54 43.13-9.09 86.25-13.64 129.38-2.35 22.25-4.74 44.5-7.13 66.74-5.89 54.69-11.96 111.25-17.27 166.92-2.64 27.55-11.96 47.02-29.34 61.29-14.5 11.89-31.53 17.92-50.61 17.92h-0.1c-34.91-0.04-70.4-0.04-104.72-0.03l-86.07 0.01c-33.29 0.01-66.58 0.01-99.87-0.01-44.15-0.02-79.4-33.89-82-78.78-1.22-21.03-3.68-42.4-6.05-63.06-1.03-8.9-2.08-18.1-3.03-27.17-3.98-38.13-8-76.25-12.02-114.38-2.12-20.11-4.25-40.24-6.38-60.36-2.43-22.94-4.85-45.88-7.27-68.83-3.39-32.19-6.76-64.38-10.13-96.57l-1.79-17.1c-0.16-1.57-0.34-3.12-0.51-4.68-0.48-4.29-0.96-8.71-1.26-13.12-1.15-16.98 10.54-31.01 27.2-32.65 17.3-1.68 31.77 9.99 33.69 27.15 2.38 21.44 4.63 43.26 6.81 64.34 1.09 10.57 2.18 21.13 3.3 31.7 1.84 17.6 3.71 35.2 5.57 52.8 2.2 20.76 4.39 41.51 6.57 62.27 2.22 21.14 4.42 42.28 6.62 63.42 1.76 16.99 3.53 33.97 5.3 50.97 1.72 16.44 3.45 32.88 5.18 49.33 2.35 22.38 4.7 44.77 7.03 67.16 1.06 10.26 1.83 18.61 2.43 26.26 0.98 12.78 9 20.42 21.45 20.42 89.88 0.03 183.8 0.03 287.1 0.01 16.11 0 20.6-11.37 21.53-20.91 2.59-26.51 5.46-53.44 8.24-79.48 1.21-11.4 2.43-22.81 3.63-34.21 2.85-27.2 5.71-54.39 8.55-81.58l9.8-93.43c2.91-27.8 5.83-55.59 8.74-83.39 1.31-12.49 2.61-24.99 3.91-37.48 1.76-16.92 3.53-33.86 5.3-50.78l0.11-1.02c0.31-3 0.62-6.11 1.3-9.18 3.9-17.99 17.07-27.28 34.35-24.24 17.13 3 27.84 17.1 26.03 34.28zM892.31 253.57c-4.9-9.31-14.45-15.31-25.51-16.04-3.36-0.23-6.67-0.26-9.45-0.26-57.33-0.01-114.65 0-171.98-0.02-0.98 0-1.88 0-2.7 0.01-1.83 0.01-3.71 0.03-4.65-0.1-0.11-0.9-0.1-2.68-0.09-4.4 0-0.98 0.01-2.07 0-3.3-0.02-2.4 0-4.8 0.01-7.19 0.02-3.71 0.04-7.55-0.05-11.34-1.1-46.62-36.75-81.97-82.93-82.25-51.98-0.31-106.38-0.32-166.32-0.01-42.4 0.21-76.87 30.81-81.97 72.76-1.05 8.64-0.78 17.26-0.52 26.38 0.1 3.07 0.19 6.23 0.24 9.44h-39.61c-47.09 0-94.19 0-141.3 0.02-3.76 0-7.76 0.03-11.7 0.45-12.53 1.29-21.95 9.83-24.57 22.27-2.28 10.87-0.49 20.32 5.19 27.32 5.75 7.07 15.22 10.97 26.69 10.98H862.5c0.47 0 0.92 0.01 1.39 0.02 0.52 0.01 1.03 0.02 1.55 0.02 0.78 0 1.58-0.02 2.4-0.11 10.78-1.13 18.36-5.65 23.18-13.8 5.82-9.83 6.29-21.36 1.29-30.85zM406.53 221.4c-0.04-3.62-0.08-7.02 0.29-10.39 1.51-13.92 9.45-20.99 23.61-21.02 18.73-0.04 37.64-0.05 56.4-0.05 11.88 0 23.69 0.01 35.35 0.01 11.76 0.01 23.51 0.01 35.27 0.01 3.89 0 7.79-0.01 11.68-0.02 8.08-0.02 16.43-0.05 24.63 0.05 14.14 0.16 23 9.15 23.12 23.43 0.05 5.92 0.03 11.85 0.02 18.13 0 1.87-0.01 3.77-0.01 5.72h-5.3c-14.86 0-29.73-0.01-44.61-0.01-50.81-0.02-103.34-0.04-155.01 0.16-3.68-0.02-4.9-0.49-5.29-0.91-0.23-0.26-0.73-1.18-0.43-4.25 0.37-3.67 0.32-7.32 0.28-10.86z"  /><path  d="M463.29 754.86c0.2 19.44-11.86 31.76-31.48 32.15-0.25 0.01-0.5 0.01-0.73 0.01-8.53 0-16.31-2.99-21.99-8.48-5.89-5.7-9.2-13.79-9.32-22.81-0.21-14.45-0.16-29.13-0.12-43.33 0.02-6.17 0.04-12.36 0.04-18.53V530.92c-0.01-41.14-0.02-83.66 0.03-125.49 0.01-9.64 4.18-18.76 11.43-25.01 6.93-5.96 15.95-8.64 24.76-7.32 14.88 2.22 24.98 15.49 25.12 33.02 0.13 16.71 0.23 33.42 0.32 50.13 0.05 9.81 0.11 19.62 0.17 29.44 0.47 73.86 0.95 147.73 1.43 221.6l0.07 10.94c0.06 12.01 0.14 24.43 0.27 36.63zM623.61 755.49c0.02 12.84-5.47 22.65-15.87 28.35-4.14 2.28-8.49 3.42-13.01 3.42-6.15 0-12.64-2.11-19.39-6.31-8.6-5.36-12.76-13.63-12.72-25.29 0.17-53.2 0.13-107.29 0.09-159.6l-0.01-9.5c-0.03-33.28-0.08-66.57-0.13-99.85-0.05-29.95-0.09-59.91-0.12-89.87-0.01-14.64 11.7-26.06 27.26-26.55 10.04-0.33 18.58 2.62 24.63 8.48 6.04 5.86 9.24 14.26 9.24 24.28l-0.01 219.75c-0.01 43.48-0.02 88.46 0.04 132.69z"  /></svg>