<?xml version="1.0" standalone="no"?><!DOCTYPE svg PUBLIC "-//W3C//DTD SVG 1.1//EN" "http://www.w3.org/Graphics/SVG/1.1/DTD/svg11.dtd"><svg class="icon" width="30px" height="30.00px" viewBox="0 0 1024 1024" version="1.1" xmlns="http://www.w3.org/2000/svg"><path fill="#8a8a8a" d="M324.32 296.096c9.408-25.81333333 18.656-51.28533333 27.968-76.72533333 4.864-13.29066667 13.55733333-19.47733333 27.648-19.488 87.744-0.04266667 175.488-0.04266667 263.232 0 14.592 0.01066667 23.52 6.47466667 28.52266667 20.352 8.37333333 23.264 16.832 46.496 24.93866666 69.84533333 1.64266667 4.74666667 4.02133333 6.15466667 8.93866667 6.12266667 37.10933333-0.21333333 74.208-0.11733333 111.31733333-0.11733334 38.176 0 69.25866667 30.432 69.312 68.59733334 0.16 130.528 0.36266667 261.04533333-0.10666666 391.57333333-0.16 43.79733333-37.25866667 68.8-69.17333334 68.74666667-204.07466667-0.384-408.16-0.192-612.23466666-0.192-36.11733333 0-67.02933333-30.93333333-67.04-67.12533334-0.02133333-131.392-0.01066667-262.79466667 0-394.18666666 0-36.50133333 30.944-67.38133333 67.488-67.40266667 39.488-0.01066667 78.98666667 0 119.18933333 0z m325.504 254.38933333c0.61866667-75.85066667-62.28266667-135.62666667-134.848-137.25866666-76.62933333-1.728-141.07733333 59.936-141.44 136.07466666-0.352 72.736 56.896 138.13333333 138.32533333 137.96266667 82.50666667-0.18133333 138.34666667-66.368 137.96266667-136.77866667z" /></svg>