<?xml version="1.0" standalone="no"?><!DOCTYPE svg PUBLIC "-//W3C//DTD SVG 1.1//EN" "http://www.w3.org/Graphics/SVG/1.1/DTD/svg11.dtd"><svg class="icon" width="30px" height="30.00px" viewBox="0 0 1024 1024" version="1.1" xmlns="http://www.w3.org/2000/svg"><path fill="#8a8a8a" d="M237.84 884.58666666V775.21666666c-7.45-0.97-14.43-1.58-21.3-2.83-50.34-9.19-88.15-54.61-88.17-105.99-0.06-111.02-0.05-222.05 0-333.07 0.02-52.57 39.26-98.7 91.1-107.05 6.29-1.01 12.74-1.42 19.11-1.42 182.24-0.07 364.47 0.02 546.71-0.11 59.15-0.04 103.23 44.73 109.14 93.22 0.53 4.36 1.2 8.75 1.2 13.13 0.07 112.57 0.07 225.14 0.05 337.71-0.01 48.58-39.27 95.38-87.16 103.46-9.96 1.68-20.17 2.54-30.26 2.56-116.99 0.17-233.99 0.08-350.98 0.25-4.13 0.01-8.77 1.23-12.31 3.34-57.37 34.26-114.6 68.75-171.87 103.18-1.33 0.78-2.67 1.51-5.26 2.99z m548.07-384.3c0.06-30.22-24.14-54.72-54.36-55.03-29.76-0.31-54.85 24.65-54.86 54.56-0.01 29.98 24.83 54.79 54.74 54.66 29.86-0.12 54.42-24.56 54.48-54.19z m-273.77 54.2c29.8-0.39 54.66-23.04 54.44-54.84-0.24-32.64-25.73-54.38-54.91-54.33-29.99 0.05-53.98 24.51-53.98 54.47-0.01 30.35 24.23 54.7 54.45 54.7z m-164.83-53.87c0.56-30-23.37-54.59-53.87-55.36-28.58-0.72-53.64 23.52-54.99 51.56-1.5 30.98 23.16 57.49 54.2 57.7 29.63 0.2 54.1-23.83 54.66-53.9z" /></svg>