<?xml version="1.0" standalone="no"?><!DOCTYPE svg PUBLIC "-//W3C//DTD SVG 1.1//EN" "http://www.w3.org/Graphics/SVG/1.1/DTD/svg11.dtd"><svg class="icon" width="30px" height="30.00px" viewBox="0 0 1024 1024" version="1.1" xmlns="http://www.w3.org/2000/svg"><path  d="M512.08 97.01c229.53 0 415.68 186.11 415.03 416.08-0.65 230.88-189.69 417.08-421.15 413.86C274.43 923.73 91.1 730.76 97.03 500.98c5.72-221.84 188.79-404.81 415.05-403.97zM406.6 607.63c-1.52-1.64-2.71-2.84-3.81-4.12-15.41-17.91-30.77-35.86-46.22-53.73-9.89-11.44-22.39-17.12-37.58-15.86-18.56 1.53-31.78 11.07-38.72 28.24-6.86 16.98-3.44 32.66 8.4 46.49 25.86 30.23 51.77 60.43 77.66 90.64 18.79 21.93 46.12 23.67 67.74 4.41 33.05-29.44 66.15-58.82 99.22-88.23 66.14-58.83 132.28-117.66 198.39-176.53 12.74-11.35 17.86-25.74 14.46-42.35-7.07-34.53-47.41-48.15-73.82-24.81-70.24 62.08-140.23 124.45-210.33 186.7-18.36 16.29-36.73 32.59-55.39 49.15z" /></svg>