<?xml version="1.0" standalone="no"?><!DOCTYPE svg PUBLIC "-//W3C//DTD SVG 1.1//EN" "http://www.w3.org/Graphics/SVG/1.1/DTD/svg11.dtd"><svg class="icon" width="30px" height="30.00px" viewBox="0 0 1024 1024" version="1.1" xmlns="http://www.w3.org/2000/svg"><path fill="#8a8a8a" d="M807.15 220.37c-37.77-38.11-81.83-68.15-130.97-89.31-50.65-21.81-104.41-33.15-159.79-33.68-112.53-1.11-218.19 41.86-297.57 120.98-38.54 38.43-68.75 83.17-89.78 133.01-21.61 51.23-32.39 105.26-32.03 160.58-1.23 223.92 180.93 409.92 406.05 414.63 2.98 0.06 5.94 0.09 8.9 0.09 53.26 0 105.22-10.04 154.58-29.91 50.47-20.3 95.91-49.89 135.05-87.92 38.82-37.72 69.43-81.81 90.97-131.05 22.4-51.18 33.98-105.77 34.42-162.25 0.88-111.48-41.67-216.3-119.83-295.17zM758.6 761.6c-33.05 32.48-71.51 57.8-114.33 75.28-44.05 17.96-90.53 26.68-138.17 25.9-191.48-3.14-346.36-160.78-345.28-351.4v-0.02c0-47.2 9.31-93.06 27.69-136.28 17.74-41.74 43.14-79.25 75.47-111.47 32.36-32.26 70-57.55 111.87-75.19 43.05-18.12 88.68-27.31 135.67-27.31h1.17c47.26 0.16 93.1 9.47 136.25 27.72 41.77 17.65 79.26 42.88 111.43 74.97 66.32 66.16 102.8 154.37 102.73 248.39-0.09 94.67-37.2 183.25-104.5 249.41z"  /><path fill="#8a8a8a" d="M689.55 552.45c-4.55 12.67-16.23 20.88-29.76 20.92-32.78 0.09-63.57 0.13-92.78 0.13-29.63 0-57.62-0.04-84.42-0.13-18.71-0.07-31.79-13.6-31.83-32.9-0.04-27.77-0.03-55.99-0.02-83.29 0-11.05 0.01-22.11 0.01-33.16 0-11.31-0.01-22.61-0.02-33.92-0.01-27.56-0.03-56.05 0.06-84.07 0.05-16.21 11.42-29.54 27.01-31.69 16.21-2.23 30.63 6.94 35.09 22.32 1.15 3.97 1.25 8.18 1.26 12.16l0.02 16.8c0.06 58.1 0.12 118.18-0.14 177.27-0.01 3.12 0.37 4.96 1.22 5.8 0.84 0.84 2.67 1.21 5.78 1.19 48.49-0.35 96.37-0.25 136.8-0.11 11.75 0.04 22.03 5.13 28.21 13.95 5.8 8.3 7.08 18.77 3.51 28.73z"  /></svg>