<?xml version="1.0" standalone="no"?><!DOCTYPE svg PUBLIC "-//W3C//DTD SVG 1.1//EN" "http://www.w3.org/Graphics/SVG/1.1/DTD/svg11.dtd"><svg class="icon" width="30px" height="30.00px" viewBox="0 0 1024 1024" version="1.1" xmlns="http://www.w3.org/2000/svg"><path fill="#8a8a8a" d="M804.90666667 395.81866667l-0.16-2.208c-1.57866667-21.184-3.21066667-43.09333333-8.23466667-63.648-16.832-68.75733333-57.26933333-128.91733333-113.86666667-169.408-49.44-35.37066667-109.12-54.21866667-170.41066666-54.21866667-8.90666667 0-17.83466667 0.40533333-26.784 1.20533333-88.16 7.89333333-159.904 49.344-213.22666667 123.18933334-32.62933333 45.17333333-50.47466667 97.09866667-53.056 154.32533333-1.45066667 31.92533333-2.31466667 63.17866667 2.83733333 94.61333333 13.06666667 79.81866667 44.45866667 155.02933333 93.312 223.54133334 35.81866667 50.22933333 75.808 97.46133333 118.85866667 140.40533333 17.65333333 17.61066667 36.384 34.93333333 54.48533333 51.69066667 7.456 6.90133333 15.14666667 14.00533333 22.752 21.13066666l0.50133334-0.40533333c1.54666667-1.26933333 2.656-2.18666667 3.72266666-3.12533333 57.6-50.98666667 110.66666667-107.24266667 157.728-167.22133334 38.58133333-49.16266667 66.016-91.79733333 86.336-134.176 35.69066667-74.41066667 50.47466667-144.96 45.20533334-215.69066666z m-83.82933334 123.34933333c-14.37866667 47.21066667-37.6 92.81066667-73.056 143.49866667-34.57066667 49.39733333-77.22666667 99.33866667-130.4 152.672-0.72533333 0.71466667-1.45066667 1.35466667-2.45333333 2.22933333-0.55466667 0.48-1.20533333 1.04533333-1.99466667 1.74933333l-2.688 2.4-2.496-2.60266666c-6.19733333-6.44266667-12.48-12.90666667-18.56-19.14666667-13.184-13.55733333-26.816-27.56266667-39.73333333-41.67466667-49.57866667-54.18666667-85.504-102.77333333-113.056-152.90666666-26.21866667-47.69066667-41.97333333-98.02666667-46.85866667-149.62133334-4.416-46.73066667-5.45066667-101.376 20.40533334-152.33066666 37.13066667-73.20533333 95.57333333-115.44533333 173.696-125.54666667 58.19733333-7.52 115.904 7.584 162.496 42.53866667 46.58133333 34.95466667 77.12 86.048 85.99466666 143.86133333 7.97866667 51.968 4.17066667 104.07466667-11.296 154.88z"  /><path fill="#8a8a8a" d="M630.432 349.632c-6.432-15.392-15.88266667-29.504-28.04266667-41.58933333-24.27733333-24.11733333-56.58666667-37.39733333-90.976-37.39733334h-0.224c-33.99466667 0.05333333-65.952 13.376-89.984 37.51466667-24.512 24.62933333-37.96266667 57.568-37.86666666 92.74666667 0.096 33.408 13.504 65.06666667 37.77066666 89.16266666 24.62933333 24.46933333 57.07733333 37.888 91.38133334 37.71733334 70.73066667-0.288 128.07466667-58.10133333 127.81866666-128.87466667-0.05333333-17.216-3.456-33.888-9.87733333-49.28z m-60.01066667 49.54666667c0 15.72266667-6.05866667 30.464-17.06666666 41.472-10.99733333 11.008-25.71733333 17.07733333-41.44 17.07733333h-0.032c-32.384-0.02133333-58.752-26.24-58.77333334-58.464-0.02133333-32.26666667 26.28266667-58.63466667 58.64533334-58.77333333h0.256c15.456 0 30.016 6.03733333 41.056 17.01333333 11.168 11.11466667 17.33333333 25.89866667 17.35466666 41.632v0.04266667z"  /></svg>