<?xml version="1.0" standalone="no"?><!DOCTYPE svg PUBLIC "-//W3C//DTD SVG 1.1//EN" "http://www.w3.org/Graphics/SVG/1.1/DTD/svg11.dtd"><svg class="icon" width="30px" height="30.00px" viewBox="0 0 1024 1024" version="1.1" xmlns="http://www.w3.org/2000/svg"><path  d="M163.936 563.70133333V335.66933333c0-74.21866667 49.00266667-135.52 121.6-150.69866667 14.176-2.96533333 29.12-2.432 43.73333333-2.99733333 4.87466667-0.192 7.28533333-1.536 9.49333334-6.208 16.66133333-35.18933333 43.91466667-54.688 83.63733333-54.73066667 60.01066667-0.064 120.02133333-0.192 180.032 0.04266667 38.63466667 0.14933333 65.6 19.15733333 82.02666667 53.39733333 2.816 5.87733333 5.824 7.744 11.94666666 7.44533334 39.53066667-1.94133333 75.66933333 7.808 106.54933334 33.22666666 37.12 30.54933333 56.88533333 70.048 56.97066666 118.304 0.27733333 153.35466667 0.128 306.70933333 0.096 460.07466667-0.02133333 82.57066667-65.80266667 151.04-148.13866666 151.59466667-134.67733333 0.90666667-269.376 0.704-404.05333334 0.02133333-65.62133333-0.33066667-126.92266667-53.26933333-140.40533333-119.30666667-2.16533333-10.624-3.30666667-21.64266667-3.34933333-32.49066666-0.27733333-76.55466667-0.13866667-153.09866667-0.13866667-229.64266667z m635.904-0.64c0-74.944-0.07466667-149.888 0.032-224.832 0.05333333-33.632-13.10933333-60.42666667-40.59733333-79.89333333-19.2-13.6-41.04533333-16.62933333-63.968-15.76533334-5.54666667 0.20266667-8.064 1.792-10.496 6.90133334-16.32 34.32533333-43.328 53.71733333-81.74933334 54.112-60.8 0.62933333-121.62133333 0.46933333-182.42133333 0.04266666-33.61066667-0.23466667-60.56533333-15.136-76.01066667-44.62933333-7.70133333-14.70933333-16.37333333-16.864-30.63466666-16.53333333-46.76266667 1.088-87.82933333 38.80533333-89.29066667 85.57866666-1.36533333 43.968-0.55466667 88-0.56533333 132-0.04266667 110.15466667-0.07466667 220.29866667 0.01066666 330.45333334 0.04266667 54.336 40.26666667 94.29333333 94.66666667 94.304 128.82133333 0.02133333 257.64266667 0.096 386.464-0.17066667 9.728-0.02133333 19.78666667-1.376 29.12-4.07466667 39.968-11.57333333 65.33333333-47.15733333 65.408-91.05066666 0.11733333-75.47733333 0.032-150.96533333 0.032-226.44266667zM512.02133333 243.02933333c29.056 0 58.10133333 0.02133333 87.15733334-0.01066667 19.84-0.02133333 33.73866667-12.53333333 33.86666666-30.44266666 0.13866667-18.25066667-13.248-30.912-33.22666666-30.95466667-58.63466667-0.096-117.28-0.10666667-175.91466667 0.01066667-20 0.04266667-33.09866667 12.608-32.992 31.09333333 0.096 17.568 13.92 30.26133333 33.152 30.29333333 29.32266667 0.04266667 58.63466667 0.01066667 87.95733333 0.01066667z"  /><path  d="M512.26666667 414.272c44.27733333 0 88.55466667-0.02133333 132.832 0.01066666 18.51733333 0.01066667 32.23466667 13.16266667 31.91466666 30.496-0.32 17.23733333-13.74933333 30.016-31.744 30.016-89.088 0.02133333-178.18666667 0.032-267.27466666 0-17.376-0.01066667-30.752-12.93866667-31.06133334-29.83466666-0.32-17.17333333 13.16266667-30.64533333 30.89066667-30.66666667 44.82133333-0.05333333 89.632-0.02133333 134.44266667-0.02133333zM511.98933333 627.41333333c-44.01066667 0-88.032-0.52266667-132.032 0.24533333-19.01866667 0.33066667-32.62933333-12.98133333-32.97066666-30.4-0.34133333-17.55733333 13.70666667-30.4 32.90666666-30.4 88.55466667-0.01066667 177.10933333-0.02133333 265.67466667 0.01066667 14.208 0 25.35466667 7.68 29.57866667 20.13866667 4.40533333 12.98133333 0.544 27.552-10.90133334 34.688-5.51466667 3.43466667-12.864 5.408-19.41333333 5.472-44.288 0.45866667-88.56533333 0.24533333-132.84266667 0.24533333zM437.00266667 780.49066666c-19.44533333 0-38.89066667 0.05333333-58.32533334-0.01066666-18.00533333-0.064-31.28533333-12.66133333-31.744-29.97333334-0.448-17.00266667 12.69333333-30.656 30.816-30.79466666 39.41333333-0.32 78.83733333-0.30933333 118.25066667 0 18.26133333 0.14933333 31.17866667 13.46133333 30.93333333 30.66666666-0.24533333 17.216-13.62133333 30.02666667-31.60533333 30.10133334-19.43466667 0.07466667-38.88 0.01066667-58.32533333 0.01066666z"  /></svg>