<?xml version="1.0" standalone="no"?><!DOCTYPE svg PUBLIC "-//W3C//DTD SVG 1.1//EN" "http://www.w3.org/Graphics/SVG/1.1/DTD/svg11.dtd"><svg class="icon" width="30px" height="30.00px" viewBox="0 0 1024 1024" version="1.1" xmlns="http://www.w3.org/2000/svg"><path  d="M123.60817778 351.85777778c4.02773333 2.20728889 6.8608 3.6864 9.6256 5.29066667 92.89955555 53.64622222 185.76497778 107.38346667 278.78968889 160.80213333 5.89368889 3.3792 7.64586667 6.88355555 7.62311111 13.48266667-0.23893333 107.99786667-0.17066667 216.00711111-0.17066667 324.00497777v9.60284445c-2.8672-1.47911111-4.83555555-2.40071111-6.71288889-3.49297778-94.73137778-54.64746667-189.45137778-109.34044445-284.22826667-163.90826667-3.64088889-2.09351111-5.05173333-4.33493333-5.05173333-8.65848889 0.13653333-110.33031111 0.11377778-220.64924445 0.11377778-330.97955555 0.01137778-1.59288889 0.01137778-3.18577778 0.01137778-6.144zM465.76071111 865.792v-8.88604445c0-108.93084445 0.03413333-217.86168889-0.1024-326.79253333-0.01137778-5.17688889 1.2288-8.28302222 6.01884444-11.03644444 94.4128-54.29475555 188.70044445-108.79431111 283.02222223-163.24835556 2.16177778-1.25155555 4.39182222-2.3552 7.17937777-3.84568889V556.032c-60.08604445 3.11751111-109.75004445 27.43182222-145.36248888 76.52693333-35.48728889 48.92444445-43.74755555 103.28746667-27.63662222 162.19022222-40.43662222 23.32444445-80.97564445 46.72853333-123.11893334 71.04284445z"  /><path  d="M762.68657778 607.50506667c76.17422222 0 138.04657778 61.92924445 137.70524444 137.81902222-0.34133333 76.40177778-62.19093333 137.63697778-138.94542222 137.58008889-75.93528889-0.05688889-137.14773333-61.88373333-137.06808889-138.45617778 0.05688889-76.20835555 61.40586667-136.94293333 138.30826667-136.94293333z m-22.8352 222.33315555L856.40533333 713.38666667c-9.76213333-9.76213333-20.25244445-20.24106667-31.48231111-31.47093334-27.47733333 27.46595555-55.30737778 55.296-84.34346667 84.32071112-13.0048-13.22097778-25.62275555-26.04373333-37.48977777-38.10417778-10.61546667 10.56995555-21.08302222 20.992-31.80088889 31.65297778 22.88071111 23.38133333 46.19377778 47.2064 68.56248889 70.05297777zM147.87697778 312.08106667c42.27982222-24.40533333 83.46737778-48.17351111 124.38186667-71.79377778 98.08782222 56.64995555 195.90257778 113.14062222 294.7527111 170.22293333-2.62826667 1.67253333-4.56248889 3.01511111-6.5991111 4.18702223-37.38737778 21.58364445-74.83164445 43.08764445-112.13937778 64.79644444-3.86844445 2.2528-6.70151111 2.53724445-10.72924445 0.2048-94.4128-54.65884445-188.91662222-109.16977778-283.39768889-163.71484444-1.78631111-1.024-3.50435555-2.17315555-6.26915555-3.90257778zM737.45066667 312.41102222c-24.94008889 14.40426667-49.24302222 28.44444445-73.53457778 42.47324445-15.07555555 8.704-30.208 17.35111111-45.20391111 26.18026666-3.53848889 2.08213333-6.38293333 2.42346667-10.19448889 0.22755556-95.24337778-55.13671111-190.55502222-110.14826667-285.85528889-165.19395556-1.17191111-0.68266667-2.27555555-1.47911111-3.94808889-2.58275555 12.24248889-7.08835555 24.064-13.96053333 35.90826667-20.7872 27.7504-16.00853333 55.46666667-32.08533333 83.3536-47.86631111 2.30968889-1.30844445 6.47395555-1.93422222 8.54471111-0.73955556 96.22186667 55.296 192.3072 110.83093333 288.40391111 166.34311111 0.58026667 0.34133333 1.06951111 0.8192 2.52586667 1.9456z"  /></svg>