<?xml version="1.0" standalone="no"?><!DOCTYPE svg PUBLIC "-//W3C//DTD SVG 1.1//EN" "http://www.w3.org/Graphics/SVG/1.1/DTD/svg11.dtd"><svg class="icon" width="30px" height="30.00px" viewBox="0 0 1024 1024" version="1.1" xmlns="http://www.w3.org/2000/svg"><path fill="#8a8a8a" d="M869.76 700.51H766.28c-1.03 20.19-4.61 39.4-11.95 57.72-22.3 55.65-61.33 96.34-113.63 124.37-127.3 68.21-274.27 12.04-335.92-100.19-12.97-23.62-21.07-48.84-22.52-75.96-0.1-1.86-0.48-3.71-0.8-6.05H154.23v-7.95c0-127.17 0.04-254.33-0.13-381.5-0.01-6.28 1.31-8.31 8.04-8.24 36.48 0.37 72.97 0.18 109.46 0.18h8.47c0.13-2.53 0.34-4.77 0.35-7.01 0.03-18.99-0.01-37.98 0.02-56.97 0.04-24.56 13.98-38.54 38.52-38.39 5.93 0.04 12.08 0 17.74 1.49 15.01 3.94 24.63 17.57 24.73 34.15 0.12 19.63 0.03 39.26 0.03 58.89v7.37h26.11v-7.58c0-34.78 0.79-69.58-0.28-104.33-0.71-23.15 15.63-41.31 39.72-39.16 4.66 0.42 9.48-0.14 14 0.82 16.37 3.5 27.04 16.96 27.1 34.15 0.13 36.06 0.04 72.12 0.04 108.18v7.94h29.23v-8.57c0-48.22-0.01-96.44 0.01-144.66 0.01-23.34 14.07-37.16 37.51-37.44 11.11-0.13 21.78 0.65 30.71 8.26 9.51 8.12 12.58 18.77 12.56 30.87-0.1 47.79-0.04 95.59-0.04 143.38v8.09h28.82v-7.13c0-34.14-0.01-68.28 0.01-102.42 0.01-21.54 13.64-35.87 35.06-36.53 6.37-0.2 12.93-0.35 19.11 0.93 15.66 3.24 26.2 16.93 26.25 33.41 0.11 34.99 0.18 69.99-0.1 104.98-0.05 6.02 1.83 7.41 7.58 7.39 55.69-0.2 111.38-0.03 167.06-0.25 5.91-0.02 8.02 1.18 8.01 7.6-0.19 127.59-0.14 255.19-0.14 382.78-0.03 2.1-0.03 4.21-0.03 7.38z m-35.6-366.77c-2.98-0.13-5.28-0.32-7.58-0.32-211.03-0.01-422.05 0.02-633.08-0.16-6.53-0.01-8.18 1.77-8.17 8.22 0.2 104.77 0.19 209.53 0.01 314.3-0.01 6.08 1.54 7.88 7.77 7.87 160.88-0.17 321.77-0.13 482.65-0.13h7.71v-8.75c0-39.9 0.02-79.8-0.01-119.7-0.01-12.03 4.13-22.1 13.71-29.61 7.42-5.81 16.13-6.61 25.27-7.29 25.77-1.9 42.93 14.6 42.07 41.59-1.21 38.37-0.32 76.8-0.29 115.21 0 2.69 0.27 5.39 0.41 7.92h69.53V333.74z"  /><path fill="#8a8a8a" d="M507.13 488.26c17.11-30.73 33.23-59.75 49.48-88.69 0.84-1.5 2.84-3.31 4.34-3.34 13.37-0.26 26.75-0.15 40.51-0.15-17.76 27.87-35.18 55.22-52.98 83.17h40.84v26.29h-48.01c-10.95 0-18.68 9.07-17.21 20.32h65.17v26.04H524.53v50.9h-35.8v-50.19h-65.15v-26.68h65.26c2.3-10.38-5.35-20.39-15.72-20.39h-49.03v-26.32h40.92c-17.71-27.75-35.07-54.97-53.05-83.14h19.71c6.61 0 13.23-0.17 19.83 0.12 1.71 0.08 4.12 1.19 4.91 2.57 14.43 25.34 28.65 50.79 42.94 76.21 2.14 3.83 4.43 7.59 7.78 13.28z"  /></svg>