<?xml version="1.0" standalone="no"?><!DOCTYPE svg PUBLIC "-//W3C//DTD SVG 1.1//EN" "http://www.w3.org/Graphics/SVG/1.1/DTD/svg11.dtd"><svg class="icon" width="30px" height="30.00px" viewBox="0 0 1024 1024" version="1.1" xmlns="http://www.w3.org/2000/svg"><path fill="#8a8a8a" d="M19.61 613.82c56.93-77.84 112.77-154.17 169.23-231.36 56.73 76.98 112.89 153.18 169.87 230.51h-95.94c12.33 30.52 29.07 56.66 50.44 79.83 41.23 44.71 91.76 73.41 151.77 83.48 124.75 20.94 244.25-43.92 293.76-158.29 48.78-112.68 14.21-243.78-83.24-319.41-96.38-74.8-250.39-80.28-355.27 23.89-28.46-30.93-56.9-61.84-86.09-93.57 8.47-7.59 16.32-15.1 24.68-22.01 60.29-49.88 129.37-79.73 207.1-88.68C669 94.82 857.12 228.49 899.05 428.88c28.19 134.72-6.42 254.36-100.3 355.37-60.85 65.47-136.71 105.49-225.14 118.5-127.5 18.76-239.68-15.91-334.37-103.6-53.25-49.32-89.15-109.78-108.91-179.63-1.37-4.84-3.63-6.17-8.47-6.12-30.99 0.32-61.98 0.33-92.97 0.43-2.51 0-5.01-0.01-9.28-0.01z" /></svg>