<?xml version="1.0" standalone="no"?><!DOCTYPE svg PUBLIC "-//W3C//DTD SVG 1.1//EN" "http://www.w3.org/Graphics/SVG/1.1/DTD/svg11.dtd"><svg class="icon" width="30px" height="30.00px" viewBox="0 0 1024 1024" version="1.1" xmlns="http://www.w3.org/2000/svg"><path  d="M273.94 541.59c-56.21-44.3-85.22-101.23-81.77-172.48 2.57-53.1 24.37-98.26 63.32-134.64 77.56-72.45 197.68-71.58 274.37 1.86 28.64 27.42 47.71 60.53 56.5 99.22 8.82 38.83 6.52 77.15-7.58 114.47-14.01 37.09-37.55 67.2-68.97 90.8 15.04 8.63 30.27 16.19 44.25 25.6C622 612.08 664.52 675.24 680.99 755.35c3.64 17.69 4.59 36.01 5.69 54.11 1.04 16.95-10.86 30.91-26.94 33.5-14.8 2.38-30.14-6.87-34.29-21.88-1.96-7.09-1.89-14.82-2.23-22.28-4.68-102.64-80.77-190.56-179.72-212.98-127.65-28.92-251.43 52.54-278.06 175.7-3.47 16.07-4.34 32.76-5.51 49.23-1.02 14.41-9.04 26.67-21.82 30.82-13.06 4.24-27.21 0-35.09-11.43-2.83-4.12-5.25-9.42-5.47-14.29-1.83-41.23 6.25-80.78 22.55-118.53 30.33-70.23 80.53-121.35 149.93-153.68 1.04-0.47 2.01-1.05 3.91-2.05z m254.65-160.9c0.61-75.11-61.29-137.16-136.63-137.28-75.01-0.12-136.65 60.08-137.42 134.48-0.8 77.53 59.79 139.14 136.66 139.39 77.86 0.25 137.71-63.44 137.39-136.59zM791.83 367.9c-33.3 0-66.6-0.05-99.9 0.03-10.97 0.03-20.85-2.47-27.94-11.46-8.05-10.2-9.28-21.58-4.01-33.28 5.92-13.16 17.22-18.25 30.97-18.27 67.06-0.1 134.12-0.06 201.17 0.01 3.15 0 6.34 0.56 9.45 1.15 15.07 2.88 25.57 16.38 24.98 31.97-0.57 14.98-12.31 27.92-27.34 29.13-10.2 0.82-20.49 0.66-30.74 0.69-25.55 0.09-51.1 0.03-76.64 0.03zM791.58 244.06c-33.76 0-67.51 0.13-101.27-0.06-14.12-0.08-25.52-5.8-30.94-19.37-8.11-20.29 4.71-41.1 25.03-42.97 2.94-0.27 5.9-0.6 8.85-0.6 65.69-0.03 131.38 0.03 197.07-0.08 12.82-0.02 23.96 3.14 31.16 14.56 6.45 10.22 6.99 20.87 1.22 31.67-6.23 11.66-16.52 16.69-29.16 16.77-33.99 0.23-67.97 0.08-101.96 0.08zM791.74 491.68c-34.44 0-68.88 0.01-103.32-0.01-17.41-0.01-30.25-12.94-31.36-29.29-1.26-18.6 14.57-33.24 31.24-33.22 68.88 0.08 137.76-0.02 206.64 0.07 17.84 0.02 31.71 14.13 31.62 31.63-0.1 17.49-13.99 30.82-32.18 30.82-34.22 0.01-68.43 0-102.64 0z" /></svg>