<?xml version="1.0" standalone="no"?><!DOCTYPE svg PUBLIC "-//W3C//DTD SVG 1.1//EN" "http://www.w3.org/Graphics/SVG/1.1/DTD/svg11.dtd"><svg class="icon" width="30px" height="30.00px" viewBox="0 0 1024 1024" version="1.1" xmlns="http://www.w3.org/2000/svg"><path  d="M794.77 541.49c-2.39 0.61-5.36 0.67-8.2 0.67-78.22 0.04-156.45 0.04-234.67 0.03l-112.86 0.01c-67.58-0.01-135.15 0-202.74-0.01-15.83 0-29.8-11.22-31.79-25.55-2.48-17.71 6.3-32.22 22.36-36.94 3.02-0.89 6.79-1.32 11.51-1.32 70-0.03 140-0.03 210-0.04 110.32 0 224.39-0.01 336.6-0.13h0.05c22.63 0 32.69 15.47 34.42 28.71 2.04 15.56-8.58 30.42-24.68 34.57zM860.84 685.01c0 25.39-0.7 68.8-3.09 83.22-3.48 21.05-14.76 41.87-31.76 58.63-17.07 16.82-38.09 27.73-59.18 30.71-17.69 2.51-36.29 2.68-54.28 2.84-6.44 0.05-13.11 0.11-19.67 0.28-9.06 0.22-18.7 0.23-27.84-1.23-16.86-2.7-26.04-19.3-24.89-33.14 1.41-16.92 14.98-29.77 31.58-29.89 4.31-0.03 8.61-0.07 12.92-0.11 8.78-0.08 17.69-0.17 26.65-0.17 9.34 0 18.72 0.09 27.99 0.37 15.44 0.47 30.02-5.57 41.16-17 10.95-11.23 17.01-26.48 16.21-40.8-0.91-16.34-0.67-33.18-0.43-49.46 0.09-5.61 0.17-11.42 0.21-17.14 0.11-17.91 10.29-30.7 27.22-34.21 8.27-1.72 17.57 0.72 24.9 6.52 7.6 6.01 11.92 14.76 12.18 24.63 0.07 3.26 0.12 8.92 0.12 15.95zM382.8 827.7c0.02 19.75-13.28 33.05-33.07 33.08-21.95 0.04-43.7 0.03-67.82 0.01-28.13-0.02-55.59-10.34-77.31-29.04-21.8-18.77-35.9-44.38-39.71-72.12-2.03-14.71-1.8-66.37-1.71-85.81 0.01-2.4 0.02-4.38 0.02-5.8 0.03-16.29 12.46-29.16 29.57-30.62 0.78-0.07 1.58-0.1 2.37-0.1 11.85 0 25.57 7.34 29.79 24.35 1.18 4.74 1.21 10.11 1.25 15.79l0.01 1.31c0.09 10.98 0.08 22.16 0.06 32.98-0.01 9.72-0.03 19.78 0.04 29.7 0.19 30.48 24.15 54.6 54.53 54.91 15.5 0.15 31.24 0.12 46.46 0.09 7.41-0.02 14.8-0.03 22.2-0.02 19.29 0 33.31 13.17 33.32 31.29zM382.8 195.7c-0.01 17.5-13.1 30.71-30.44 30.71-7.3 0.01-14.58 0-21.87-0.01-14.36-0.03-29.2-0.05-43.83 0.05-29.32 0.2-51.93 17.09-59.01 44.09-1.16 4.41-1.33 8.8-1.34 12.91-0.04 8.64-0.01 17.41 0.01 25.89 0.04 14.45 0.09 29.41-0.16 44.06-0.26 14.64-6.08 24.22-17.82 29.29-13.41 5.78-24.7 4.64-34.5-3.51-6.92-5.76-10.49-13.23-10.59-22.21-0.26-22.41-0.18-84.41 3.16-101.97 4.18-22 16.32-43.23 34.15-59.79 17.73-16.46 39.97-27.31 62.63-30.57 5.94-0.85 11.72-1.3 17.18-1.33 19.16-0.13 38.65-0.1 57.51-0.08l14.71 0.02c8.41 0 16.07 3.2 21.55 9.01 5.59 5.91 8.67 14.24 8.66 23.44zM860.81 337.87c-0.02 5.09-0.05 10.17-0.06 15.25-0.04 16.24-11.74 30.58-26.66 32.63-16.79 2.32-31.5-7.84-35.77-24.67-0.5-1.99-0.57-4.44-0.58-6.78-0.03-10.37-0.02-20.73-0.01-31.1 0-13.25 0.01-26.96-0.05-40.43-0.13-25.13-15.56-46.59-38.39-53.38-6.05-1.8-12.88-2.76-20.28-2.85-10.06-0.12-20.2-0.15-30.24-0.15-5.35 0-10.67 0.01-15.93 0.02-7.74 0.01-15.49 0.02-23.23 0.01-15.68-0.03-29.54-14.71-29.66-31.42-0.07-8.29 3.42-16.61 9.57-22.84 5.63-5.7 12.64-8.86 19.79-8.9 5.43-0.03 10.68-0.04 15.74-0.04 43.71 0 73.29 1.07 84.02 3.09 43.43 8.15 80.77 46.24 88.8 90.54 1.64 9.03 2.54 18.88 2.76 30.1 0.33 16.92 0.26 34.21 0.18 50.92z" /></svg>