<?xml version="1.0" standalone="no"?><!DOCTYPE svg PUBLIC "-//W3C//DTD SVG 1.1//EN" "http://www.w3.org/Graphics/SVG/1.1/DTD/svg11.dtd"><svg class="icon" width="30px" height="30.00px" viewBox="0 0 1024 1024" version="1.1" xmlns="http://www.w3.org/2000/svg"><path fill="#8a8a8a" d="M678.63 761.76c-84.54 53.76-175.24 70.27-272.17 45.42-82.35-21.11-147.22-68.2-194.95-138.35-93.26-137.06-70.28-324.57 53.07-436.65 123.96-112.64 310.47-117.21 440.34-11.41 129.19 105.24 169.9 304.49 58.68 459.42 1.82 1.93 3.71 4.01 5.69 5.99 35.38 35.4 70.83 70.73 106.14 106.19 21.48 21.58 26.14 48.96 12.73 73.02-18.91 33.94-64.68 40.57-92.45 13.05-37.26-36.91-74.21-74.13-111.31-111.21-1.85-1.84-3.79-3.59-5.77-5.47z m-187.23-527c-136.29 0-247.35 110.81-247.21 246.65 0.14 135.61 111.13 246.62 246.64 246.71 136.23 0.09 247.26-110.55 247.37-246.5 0.13-136.2-110.51-246.86-246.8-246.86z" /></svg>