<?xml version="1.0" standalone="no"?><!DOCTYPE svg PUBLIC "-//W3C//DTD SVG 1.1//EN" "http://www.w3.org/Graphics/SVG/1.1/DTD/svg11.dtd"><svg class="icon" width="30px" height="30.00px" viewBox="0 0 1024 1024" version="1.1" xmlns="http://www.w3.org/2000/svg"><path  d="M325.44 601.53c-12.5-3.07-25.49-4.88-37.43-9.43-45.53-17.38-90.79-35.49-136-53.67-11.58-4.66-22.17-11.33-23.53-25.46-1.33-13.85 7.82-21.93 18-28.66 6.54-4.32 13.73-7.68 20.76-11.22 95.55-48.02 191.14-95.96 286.68-144C579.63 265.87 705.3 202.58 831 139.34c11.68-5.88 23.92-8.54 36.9-5.21 20.6 5.29 31.25 25.6 26.74 49.65a48059.34 48059.34 0 0 0-34.76 187.84c-15.67 85.59-31.18 171.21-46.76 256.82-7.27 39.93-14.62 79.85-21.76 119.8-7.05 39.43-45.18 59.27-81.61 42.06-64.76-30.57-129.41-61.35-194.13-92-19.28-9.13-38.7-17.96-57.9-27.23-16.14-7.79-29.61-18.02-31.68-37.78-1.56-14.98 3.46-27.46 14.09-37.78 32.65-31.69 65.37-63.31 98.09-94.92 44.97-43.44 89.97-86.85 134.97-130.27 10.24-9.88 20.52-19.73 30.77-29.6 1.47-1.41 3.44-2.63 4.2-4.36 1.09-2.49 1.29-5.36 1.87-8.07-2.79 0.22-5.81-0.14-8.31 0.82-2.5 0.96-4.52 3.21-6.7 4.95-98.32 78.57-196.62 157.17-294.98 235.69-16.44 13.12-34.38 23.54-55.3 27.81-6.2 1.27-12.55 1.82-18.83 2.69-0.18 0.44-0.33 0.86-0.47 1.28zM380.63 888.67c-8.24 5.54-19.51 2.05-23.17-7.18-9.52-23.98-18.88-47.54-28.23-71.1-14.76-37.22-29.97-74.28-43.96-111.79-4.08-10.93-6.13-23.11-6.49-34.8-0.57-18.45 12.25-29.2 29.87-24.13 16.64 4.78 32.66 12.27 48.27 19.95 37.57 18.47 75.07 37.15 111.88 57.06 11.28 6.1 21.93 15.13 29.93 25.16 16.93 21.23 10.86 58.76-12.15 74.91-34.71 24.36-70.07 47.81-105.95 71.92z" /></svg>