<?xml version="1.0" standalone="no"?><!DOCTYPE svg PUBLIC "-//W3C//DTD SVG 1.1//EN" "http://www.w3.org/Graphics/SVG/1.1/DTD/svg11.dtd"><svg class="icon" width="30px" height="30.00px" viewBox="0 0 1024 1024" version="1.1" xmlns="http://www.w3.org/2000/svg"><path  d="M926.91 897.95c-0.96-40.78-6.27-77.1-16.21-111-11.55-39.4-28.69-76.42-50.95-110.03-5.5-8.32-13.11-13.77-21.4-15.36-7.7-1.48-15.51 0.32-22.58 5.22-31.23 21.63-63.21 44.23-97.78 69.07-12.67 9.1-15.74 27.32-6.84 40.62 8.91 13.32 26.81 17.34 40.76 9.13 4.03-2.37 7.74-5.07 11.33-7.67 1.3-0.95 2.62-1.9 3.93-2.83 14.6-10.29 29.2-20.59 44.03-31.06l12.6-8.89c23.12 42.65 36.45 86.79 40.61 134.42H158.94c0.25-1.92 0.49-3.84 0.73-5.73 1.29-10.22 2.5-19.88 4.41-29.42 10.05-50.28 30.28-96.61 60.12-137.69 28.77-39.6 64.91-72.3 107.44-97.21 42.82-25.07 89.43-40.68 138.54-46.39 51.18-5.97 102.42-0.77 152.27 15.42 16.07 5.22 31.98 12.67 47.38 19.87 4.95 2.32 10.09 4.72 15.17 7.01 9.63 4.37 20.04 4.51 28.56 0.4 7.93-3.82 13.56-10.89 15.84-19.92 3.42-13.55-2.91-26.67-16.54-34.24-27.98-15.53-58.36-27.7-92.37-36.94 25.38-15.03 46.61-32.95 63.28-53.4 21.11-25.91 35.58-56.72 43.02-91.55 15.23-71.42-1.39-135.63-49.4-190.83-20.6-23.69-45.21-42.3-73.13-55.28-26.91-12.53-55.68-19.29-85.48-20.11-30.3-0.84-59.98 4.5-88.22 15.87-29.27 11.78-55.51 29.5-78.01 52.65-21.89 22.52-38.12 47.85-48.25 75.28-10.13 27.45-14.23 57.2-12.17 88.41 5.17 78.15 42.43 138.33 110.85 179.1-65.1 18.68-121.26 48.5-167.07 88.69-47.97 42.1-85.76 96.64-112.32 162.11-16.42 40.46-25.07 83.85-26.44 132.66-0.34 12.44 0.4 25.05 8.18 33.05 7.74 7.96 19.94 9.06 31.97 9.06l750.73-0.01c0.81 0 1.62 0.02 2.43 0.03 0.88 0.01 1.78 0.03 2.68 0.03 1.45 0 2.94-0.04 4.47-0.16 17.68-1.41 29.72-14.73 29.3-32.38zM398.97 426.04c-30.44-30.67-47.05-70.76-46.77-112.9 0.28-42.65 16.99-82.54 47.05-112.35 30.06-29.81 70.14-46.22 112.87-46.22h0.01c42.88 0 82.91 16.61 112.73 46.77 29.85 30.17 46.27 70.7 46.26 114.1-0.01 42.09-16.81 81.64-47.3 111.36-30.52 29.77-71.13 46.15-114.37 46.14h-0.09c-41.16 0-80.38-16.66-110.39-46.9z" /></svg>