<?xml version="1.0" standalone="no"?><!DOCTYPE svg PUBLIC "-//W3C//DTD SVG 1.1//EN" "http://www.w3.org/Graphics/SVG/1.1/DTD/svg11.dtd"><svg class="icon" width="30px" height="30.00px" viewBox="0 0 1024 1024" version="1.1" xmlns="http://www.w3.org/2000/svg"><path  d="M817.315625 206.46875H393.89375c0 5.259375 0.065625 10.21875-0.009375 15.178125-0.309375 19.209375 0.571875 38.540625-1.340625 57.590625-2.2125 21.95625-14.746875 38.240625-34.51875 48.065625-46.275 22.9875-92.64375 45.778125-139.2375 68.109375-8.9625 4.303125-12.234375 9.75-12.215625 19.575 0.271875 114.7125 0.178125 229.434375 0.16875 344.146875 0 15.825-8.240625 26.259375-22.715625 28.96875-15.703125 2.934375-30.6375-8.6625-31.6125-24.6-0.140625-2.278125-0.075-4.575-0.075-6.871875 0-114.721875 0.103125-229.434375-0.075-344.15625-0.046875-29.925 13.115625-51.0375 39.8625-64.06875 45.009375-21.928125 89.8875-44.11875 135.028125-65.775 8.803125-4.21875 12.646875-9.54375 12.403125-19.55625-0.609375-24.7125-0.225-49.453125-0.196875-74.184375 0.028125-21.515625 15.103125-36.7125 36.759375-36.721875 152.953125-0.046875 305.915625-0.046875 458.86875 0 21.5625 0.009375 36.721875 15.215625 36.73125 36.825 0.046875 188.90625 0.0375 377.8125 0 566.71875 0 16.734375-11.79375 28.93125-27.46875 28.81875-15.80625-0.1125-26.915625-12.103125-26.915625-29.2125-0.01875-179.521875-0.009375-359.034375-0.009375-538.55625-0.009375-3.121875-0.009375-6.290625-0.009375-10.29375z"  /><path  d="M789.0125 768.921875c-0.61875 47.878125-33.35625 89.409375-79.246875 99.825-48.759375 11.0625-96.796875-11.625-117.75-56.165625-2.83125-6.01875-6.103125-7.565625-12.31875-7.528125-45.778125 0.253125-91.55625 0.225-137.334375 0.009375-5.090625-0.028125-7.6125 1.48125-9.73125 6.178125-18.309375 40.490625-61.603125 65.1-104.83125 59.915625-46.996875-5.64375-82.89375-39.075-91.171875-84.9-12.140625-67.21875 48.46875-129.2625 115.95-118.3125 44.53125 7.228125 73.3125 32.8875 86.025 76.190625 1.275 4.33125 2.86875 5.83125 7.359375 5.8125 43.95-0.15 87.890625-0.178125 131.840625 0.028125 5.025 0.028125 6.45-1.95 7.603125-6.35625 12.234375-46.89375 54.46875-77.85 104.221875-76.63125 46.18125 1.125 86.840625 35.00625 96.740625 80.915625 1.5 6.8625 1.790625 14.00625 2.64375 21.01875z m-103.715625-47.090625c-26.146875 0.028125-47.7375 21.50625-47.728125 47.465625 0.01875 25.828125 21.834375 47.4375 47.859375 47.409375 26.00625-0.028125 47.8125-21.740625 47.75625-47.55-0.05625-25.921875-21.75-47.353125-47.8875-47.325z m-298.959375 47.296875c0.009375-25.85625-21.76875-47.371875-47.86875-47.296875-26.221875 0.075-47.634375 21.43125-47.615625 47.49375 0.01875 25.89375 21.740625 47.41875 47.821875 47.38125 26.04375-0.0375 47.653125-21.609375 47.6625-47.578125zM305.890625 522.809375c-15.328125 0-30.65625 0.346875-45.975-0.1125-13.228125-0.39375-22.790625-9.975-24.534375-23.38125-1.5375-11.83125 6.140625-24.196875 17.765625-27.75 3.84375-1.171875 8.1-1.340625 12.178125-1.359375 25.1625-0.1125 50.325-0.046875 75.4875-0.065625 10.9875-0.009375 13.9125-2.878125 13.93125-13.715625 0.0375-20.128125-0.15-40.25625 0.05625-60.384375 0.196875-19.021875 15.31875-31.565625 32.5875-27.075 10.190625 2.653125 18.225 9.5625 18.478125 19.771875 0.703125 28.509375 1.95 57.3375-1.359375 85.528125-3.271875 27.975-28.434375 47.240625-56.775 48.440625-13.921875 0.6-27.890625 0.1125-41.840625 0.103125z"  /></svg>