<?xml version="1.0" standalone="no"?><!DOCTYPE svg PUBLIC "-//W3C//DTD SVG 1.1//EN" "http://www.w3.org/Graphics/SVG/1.1/DTD/svg11.dtd"><svg class="icon" width="30px" height="30.00px" viewBox="0 0 1024 1024" version="1.1" xmlns="http://www.w3.org/2000/svg"><path fill="#8a8a8a" d="M670.79 299.86H679c37.47 0 74.95-0.01 112.42 0.01 14.69 0.01 20.99 6.32 22.38 21.06 3.94 41.93 8.2 83.82 12.27 125.74 3.61 37.26 7.09 74.54 10.7 111.8 4.04 41.7 8.19 83.4 12.25 125.1 3.58 36.84 7.08 73.68 10.65 110.52 2.38 24.56 4.83 49.1 7.2 73.66 0.33 3.38 0.64 6.81 0.45 10.19-0.48 8.54-7.32 15.63-15.81 16.61-2.11 0.24-4.25 0.17-6.38 0.17-222.07 0.01-444.14 0.01-666.21 0-13.28 0-20.47-5.25-22.13-16.19-0.25-1.64-0.15-3.37 0-5.03 4.45-46.8 8.87-93.59 13.42-140.38 5.33-54.83 10.83-109.64 16.15-164.47 5.32-54.83 10.47-109.68 15.76-164.51 2.76-28.58 5.62-57.15 8.54-85.71 1.28-12.48 8.05-18.53 20.67-18.55 37.9-0.05 75.8-0.02 113.7-0.02h7.87c0.82-9.61 1.19-18.71 2.43-27.7 9.76-70.88 62.04-128.76 128.23-140.14 65.48-11.26 117.39 12.46 155.95 65.58 20.81 28.67 30.29 61.54 31.04 96.92 0.01 1.46 0.12 2.91 0.24 5.34z m-55.88-0.39c-1.01-41.4-15.91-75.25-50.6-98.61-32.79-22.08-74.08-21.54-106.67 1.42-33.29 23.45-47.57 56.76-48.54 97.19h205.81z" /></svg>