<?xml version="1.0" standalone="no"?><!DOCTYPE svg PUBLIC "-//W3C//DTD SVG 1.1//EN" "http://www.w3.org/Graphics/SVG/1.1/DTD/svg11.dtd"><svg class="icon" width="30px" height="30.00px" viewBox="0 0 1024 1024" version="1.1" xmlns="http://www.w3.org/2000/svg"><path  d="M215.35 677.56c-2.99 0-5.17-0.2-7.3 0.03-23.67 2.56-39.67-13.51-36.19-36.99 0.87-5.87-0.47-7.75-6.16-6.88-15.8 2.42-28.56-3.52-34.86-16.15-6.4-12.82-3.69-26.54 7.62-37.84 71.51-71.46 143.06-142.89 214.57-214.36 75.64-75.6 151.24-151.26 226.89-226.85 18.28-18.27 46.54-12.06 53.44 11.94 1.42 4.93 1.07 10.59 0.52 15.81-0.56 5.38 0.51 6.78 6.19 5.99 25.27-3.54 41.17 12.87 37.21 38.07-0.77 4.89 1.31 5.85 5.69 5.66 5.77-0.25 11.85-0.88 17.31 0.54 14.83 3.84 24.2 20.11 21.22 35.27-1.5 7.64-0.24 9.15 7.2 7.27 17.79-4.49 40.97 12.33 36.32 36.05-1.47 7.51-0.07 8.9 7.05 7.46 20.17-4.08 38.82 12.65 36.99 33.2-0.19 2.18-0.62 4.35-0.62 6.52 0 3.43 0.94 5.42 5.29 4.43 23.35-5.29 41.75 12.64 38.74 34.9-1.22 9.02-0.67 9.1 7.93 8.17 14.96-1.62 26.72 4.26 32.79 16.4 6.14 12.28 3.74 26.2-6.4 36.93-0.84 0.89-1.72 1.73-2.58 2.59-145.72 145.73-291.47 291.45-437.16 437.22-9.21 9.22-19.18 15.32-33.02 12.41-16.25-3.42-27.51-19.7-24.34-35.99 1.55-7.96 0.68-8.77-7.59-7.14-20.57 4.07-40.01-15.51-35.95-36.2 1.6-8.15 0.9-8.74-7.38-7.38-22 3.6-39.92-15.28-36.12-35.86 1.44-7.83 0.48-8.77-7.29-7.76-25.44 3.3-39.98-17.68-36.31-35.8 1.02-5.06 1.26-9.84-6.94-8.08-19.45 4.17-39.23-10.86-36.81-33.54 0.33-3.07 0.05-6.2 0.05-10.04z m290.1 67.62c0.33 0.6 0.65 1.21 0.98 1.81 5.51-3.04 12.08-5.03 16.38-9.29 67.81-67.25 135.35-134.77 202.89-202.29 12.94-12.94 12.76-25.66-0.22-38.65-65.98-65.98-131.97-131.96-197.95-197.94-13.81-13.81-25.59-13.76-39.51 0.16-66.51 66.5-133.01 133-199.5 199.5-13.61 13.61-13.67 26.22-0.12 39.79 23.41 23.45 46.85 46.87 70.28 70.3 42.38 42.38 84.76 84.76 127.13 127.14 5.45 5.46 11.25 10.12 19.64 9.47z m322.29-312.95c-11.67-7.62-19.51-18.28-23.86-31.81-0.87-2.69-4.43-5.44-7.34-6.41-17.94-5.99-29.39-17.98-35.79-35.61-1.22-3.35-4.88-7.01-8.24-8.2-17.23-6.09-28.63-17.35-34.99-34.52-1.44-3.89-5.85-7.85-9.82-9.43-16.38-6.5-27.54-17.34-33.62-34.05-1.44-3.96-5.73-8.25-9.69-9.68-17.04-6.14-28.05-17.51-33.99-34.44-1.04-2.97-3.36-6.8-5.97-7.69-13.53-4.63-24.76-12.08-33.11-25-10.14 10.24-19.69 19.91-29.28 29.54-13.5 13.56-13.6 25.68-0.23 39.06 37.87 37.89 75.76 75.77 113.64 113.65 28.76 28.76 57.49 57.54 86.28 86.25 9.65 9.62 22.73 11.35 32.02 2.84 11.82-10.79 22.55-22.77 33.99-34.5z m-632.4 158.59c12.79 8.38 20.53 19.1 25 32.54 0.92 2.78 4.91 5.3 8.04 6.46 17.07 6.31 28.4 17.85 34.78 34.89 1.32 3.54 4.94 7.47 8.41 8.74 17.4 6.36 28.91 17.92 35.35 35.27 1.29 3.48 5.18 7.12 8.71 8.47 16.68 6.39 28.18 17.27 34.39 34.26 1.43 3.91 5.68 8.07 9.6 9.55 16.58 6.25 27.71 17.23 33.87 33.82 1.3 3.51 4.26 7.81 7.47 8.98 12.98 4.73 23.75 11.94 31.43 24.06 8.53-8.39 16.96-16.08 24.56-24.51 2.49-2.77 3.41-7.39 4.04-11.33 1.49-9.33-3.34-16.14-9.64-22.42-57.22-57.11-114.37-114.29-171.53-171.47-9.12-9.13-18.16-18.34-27.28-27.46-10.78-10.78-24.26-11.45-34.95-1.53-7.33 6.77-14.31 13.9-22.25 21.68z" /></svg>