<?xml version="1.0" encoding="UTF-8"?>
<svg width="310px" height="310px" viewBox="0 0 310 310" version="1.1" xmlns="http://www.w3.org/2000/svg" xmlns:xlink="http://www.w3.org/1999/xlink">
    <title>矩形 2</title>
    <g id="" stroke="none" stroke-width="1" fill="none" fill-rule="evenodd">
        <g id="矩形-2">
            <rect id="矩形" x="0" y="0" width="310" height="310"></rect>
            <g id="编组-19" transform="translate(0.000000, 76.000000)" fill="#526efa" fill-rule="nonzero">
                <path d="M239.018032,21.3576232 C247.550377,21.3576232 247.550377,-1.11910481e-13 239.018032,-1.11910481e-13 C230.485687,-1.11910481e-13 115.804659,-1.11910481e-13 86.1414495,-1.11910481e-13 C31.9347201,-1.11910481e-13 -17.1255601,18.273134 6.78838636,18.273134 C39.222002,18.273134 230.485687,21.3576232 239.018032,21.3576232 Z" id="路径-7"></path>
                <path d="M100.831106,10.6788116 C71.1119132,58.3358549 17.5412234,134.661634 17.5412234,139.370485 C17.5412234,144.079335 36.7723696,160.371624 41.9821618,157.317551 C47.191954,154.263477 123.019458,96.7637357 133.5,101.252172 C143.980541,105.740608 132.107485,127.615285 136.377538,133.177424 C138.217562,139.370485 144.197868,146.433761 153.872467,146.433761 C163.547067,146.433761 238.26327,97.2630074 245.417291,107.063094 C252.571312,116.863181 237.895394,138.600704 254.201042,149.484495 C270.506689,160.368285 301.424802,150.028851 305.833088,146.433761 C310.241374,142.83867 312.007415,134.581484 303.840769,128.724682 C296.358136,124.150848 277.471447,131.108289 272.797314,128.724682 C268.123181,126.341074 278.865918,94.4954904 261.038522,84.1874096 C234.216209,68.9637755 160.829899,119.901643 157.380081,117.151473 C153.930264,114.401304 162.306581,82.036054 148.041508,76.3253202 C133.776434,70.6145865 78.3571979,103.107326 68.5020077,109.557783 C65.7601876,101.252172 113.05408,39.437654 100.831106,10.6788116 Z" id="路径-8"></path>
            </g>
        </g>
    </g>
</svg>