<?xml version="1.0" standalone="no"?><!DOCTYPE svg PUBLIC "-//W3C//DTD SVG 1.1//EN" "http://www.w3.org/Graphics/SVG/1.1/DTD/svg11.dtd"><svg class="icon" width="30px" height="30.00px" viewBox="0 0 1024 1024" version="1.1" xmlns="http://www.w3.org/2000/svg"><path fill="#8a8a8a" d="M511.82933333 128.288c32.61866667 0 65.23733333-0.512 97.84533334 0.10666667 76.096 1.44 137.472 33.07733333 178.09066666 97.088 39.62666667 62.44266667 76.672 126.784 110.67733334 192.45866666 34.112 65.87733333 30.66666667 133.94133333-5.13066667 198.92266667-31.89333333 57.888-65.408 114.89066667-98.93333333 171.85066667-34.22933333 58.16533333-85.536 92.416-151.72266667 104.23466666-12.16 2.176-24.74666667 2.54933333-37.14133333 2.60266667-62.848 0.24533333-125.696 0.672-188.53333334-0.02133333-83.776-0.91733333-147.70133333-37.51466667-190.28266666-109.84533334-32.864-55.81866667-65.06666667-112.032-97.088-168.34133333-21.73866667-38.208-30.72-79.328-26.944-123.40266667 2.88-33.52533333 13.216-64.24533333 30.09066666-93.19466666 32.08533333-55.05066667 63.40266667-110.53866667 95.68-165.472 33.87733333-57.65333333 84.17066667-92.43733333 150.10133334-103.66933334 15.27466667-2.60266667 31.04-2.93333333 46.592-3.18933333 28.88533333-0.46933333 57.792-0.128 86.69866666-0.128z m-0.66133333 698.80533333c31.81866667 0 63.648 0.096 95.46666667-0.07466666 7.63733333-0.04266667 15.34933333-0.48 22.90133333-1.57866667 46.112-6.69866667 81.41866667-30.38933333 104.992-70.21866667 33.52533333-56.65066667 66.496-113.65333333 98.67733333-171.08266666 26.88-47.968 26.656-97.09866667-0.14933333-145.00266667-31.11466667-55.60533333-63.49866667-110.50666667-95.44533333-165.65333333-29.93066667-51.68-75.04-77.14133333-134.58133334-77.216-59.66933333-0.07466667-119.33866667-0.07466667-179.008 0.04266666-8.97066667 0.02133333-18.016 0.37333333-26.912 1.44-47.456 5.71733333-84.128 29.04533333-108.43733333 70.00533334C255.75466667 323.232 224 379.41333333 191.776 435.30666667c-28.448 49.35466667-29.824 99.50933333-2.048 149.22666666 31.85066667 57.01333333 64.39466667 113.65333333 97.856 169.728 28.48 47.72266667 71.424 72.21333333 127.31733333 72.768 32.096 0.32 64.18133333 0.064 96.26666667 0.064z"  /><path fill="#8a8a8a" d="M684.928 512.43733333c1.96266667 91.2-75.75466667 173.792-174.22933333 173.32266667-91.75466667-0.43733333-173.26933333-73.54666667-173.33333334-173.89866667-0.064-98.26133333 78.592-173.94133333 173.888-174.05866666 101.54666667-0.128 176.23466667 84.8 173.67466667 174.63466666z m-173.70666667 104.576c54.272 1.792 104.29866667-43.76533333 105.77066667-102.28266666 1.536-60.896-47.69066667-106.85866667-102.26133333-108.56533334-57.86666667-1.81333333-109.216 44.78933333-108.97066667 105.81333334 0.26666667 64.384 55.09333333 107.14666667 105.46133333 105.03466666z"  /></svg>