<?xml version="1.0" standalone="no"?><!DOCTYPE svg PUBLIC "-//W3C//DTD SVG 1.1//EN" "http://www.w3.org/Graphics/SVG/1.1/DTD/svg11.dtd"><svg class="icon" width="30px" height="30.00px" viewBox="0 0 1024 1024" version="1.1" xmlns="http://www.w3.org/2000/svg"><path fill="#8a8a8a" d="M512.12 875.55333333H148.56c-15.58 0-20.39-4.61-20.18-20.07 0.29-22.1-0.81-44.38 1.62-66.26 8.72-78.36 68.74-142.01 144.38-153.41 10.04-1.51 20.29-2.32 30.45-2.33 138.13-0.15 276.25-0.1 414.38-0.1 88.04 0 160.93 61.48 173.64 148.71 3.81 26.19 2.31 53.17 2.78 79.8 0.13 7.24-6.14 12.81-13.44 13.51-2.58 0.25-5.21 0.15-7.81 0.15H512.12zM688.94 382.97333333c0 106.4-85.79 191.87-193.04 191.33-108.18-0.54-191.75-89.94-190.49-194.14 1.23-101.84 85.3-190.99 195.56-189.04 106.63 1.89 189.2 90.25 187.97 191.85z" /></svg>