<?xml version="1.0" standalone="no"?><!DOCTYPE svg PUBLIC "-//W3C//DTD SVG 1.1//EN" "http://www.w3.org/Graphics/SVG/1.1/DTD/svg11.dtd"><svg class="icon" width="30px" height="30.00px" viewBox="0 0 1024 1024" version="1.1" xmlns="http://www.w3.org/2000/svg"><path  d="M419.34933333 675.08266667c-17.22666667 0-33.57866667 1.42933333-49.568-0.34133334-23.38133333-2.592-46.54933333-7.30666667-69.728-11.50933333-6.016-1.088-11.09333333-0.72533333-16.69333333 2.144-27.68 14.19733333-55.59466667 27.968-83.424 41.86666667-2.58133333 1.29066667-5.216 2.464-9.29066667 4.384 1.07733333-3.936 1.68533333-6.64533333 2.57066667-9.25866667 7.86133333-23.488 15.616-47.02933333 23.78666667-70.41066667 1.77066667-5.056 0.69333333-7.57333333-3.57333334-10.624-34.42133333-24.64-64.68266667-53.568-84.56533333-91.34933333-38.38933333-72.96-34.66666667-145.48266667 8.16-215.05066667 37.62133333-61.13066667 94.32533333-98.35733333 162.624-116.85333333 103.15733333-27.936 200.29866667-13.23733333 288.45866667 48.512 48.37333333 33.87733333 81.792 79.296 96.16 137.49333333 0.17066667 0.68266667 0.13866667 1.42933333 0.23466666 2.38933334-15.54133333 0-31.01866667-0.864-46.368 0.13866666-102.02666667 6.656-189.888 72.23466667-218.09066666 165.376-11.70133333 38.656-12.33066667 77.52533333-2.19733334 116.59733334 0.40533333 1.62133333 0.75733333 3.27466667 1.504 6.496z m-122.51733333-295.25333334c20.93866667 0.21333333 35.69066667-12.20266667 37.64266667-30.624 2.29333333-21.55733333-8.40533333-37.6-28.24533334-40.97066666-16.07466667-2.74133333-30.54933333 1.68533333-42.12266666 13.36533333-12.68266667 12.8-12.26666667 31.62666667 0.43733333 44.46933333 9.23733333 9.32266667 20.65066667 13.344 32.288 13.76z m203.47733333 0c20.36266667 0.48 35.46666667-12.256 37.20533334-31.40266666 1.94133333-21.38666667-9.17333333-37.25866667-29.152-40.352-15.54133333-2.41066667-29.568 1.92-40.90666667 12.98133333-12.97066667 12.66133333-12.78933333 32.16 0.02133333 45.09866667 9.01333333 9.12 20.192 13.19466667 32.832 13.67466666z"  /><path  d="M841.97333333 839.49866667c-21.25866667-11.328-41.056-20.72533333-59.62666666-32.13866667-13.46133333-8.27733333-25.792-9.088-41.00266667-5.248-77.216 19.52-150.31466667 8.42666667-217.55733333-34.44266667-46.336-29.54666667-78.56-70.60266667-89.568-125.408-11.76533333-58.57066667 4.08533333-110.50666667 43.05066666-155.168 38.67733333-44.33066667 88.672-69.00266667 145.87733334-79.18933333 70.22933333-12.512 136.56533333-1.25866667 197.76 36.16 33.824 20.69333333 61.70666667 47.65866667 80.04266666 83.15733333 32.8 63.47733333 26.26133333 123.78666667-16.49066666 180.55466667-16.52266667 21.94133333-36.27733333 40.68266667-58.31466667 56.93866667-4.87466667 3.59466667-5.48266667 6.67733333-3.72266667 12.08533333 6.528 20.04266667 12.58666667 40.224 19.552 62.69866667zM597.26933333 572.26666667c0.26666667 0.62933333 0.53333333 1.248 0.8 1.87733333 8.08533333-3.47733333 17.00266667-5.76 24.064-10.69866667 13.83466667-9.67466667 14.45333333-27.456 1.20533334-37.856-6.15466667-4.82133333-14.48533333-7.872-22.28266667-9.38666666-15.63733333-3.02933333-32.43733333 10.82666667-33.408 26.176-0.93866667 14.96533333 13.81333333 29.856 29.62133333 29.888z m158.944 0c0.26666667 0.608 0.53333333 1.22666667 0.8 1.83466666 8.08533333-3.50933333 17.056-5.76 24.05333334-10.77333333 14.336-10.26133333 14.29333333-28.45866667-0.01066667-38.784-6.016-4.34133333-13.888-6.976-21.29066667-8.352-15.328-2.85866667-31.92533333 10.816-32.864 25.94133333-0.94933333 15.25333333 13.504 30.112 29.312 30.13333334z"  /></svg>