<?xml version="1.0" standalone="no"?><!DOCTYPE svg PUBLIC "-//W3C//DTD SVG 1.1//EN" "http://www.w3.org/Graphics/SVG/1.1/DTD/svg11.dtd"><svg class="icon" width="30px" height="30.00px" viewBox="0 0 1024 1024" version="1.1" xmlns="http://www.w3.org/2000/svg"><path  d="M152.87 512.37c0-71.3-0.01-142.59 0-213.89 0.01-76.54 59.37-140.05 135.56-144.98 7.62-0.49 15.28-0.72 22.92-0.72 77.28-0.05 154.55 0 231.83-0.05 14.11-0.01 25.94 4.36 33.25 17.14 12.92 22.59-2.87 49.92-29.04 50.07-33.73 0.2-67.47 0.05-101.2 0.05-47.85 0-95.7-0.11-143.55 0.04-39.05 0.12-69.37 22.11-79.6 57.84-1.88 6.56-2.8 13.63-2.81 20.47-0.16 142.35-0.15 284.71-0.1 427.06 0.01 43.67 35.24 78.63 79.09 78.63 141.4 0.01 282.79 0.01 424.19 0 45.12 0 80.18-34.68 80.24-79.87 0.14-93.79 0.03-187.57 0.06-281.36 0.01-16.14 9.69-29.18 24.44-33.22 14.68-4.03 30.27 1.73 37.73 15 2.81 5 4.8 11.23 4.81 16.91 0.25 96.65 0.92 193.32-0.18 289.96-0.8 70.22-57.71 130.83-127.44 138.57-6.63 0.74-13.34 1.17-20.01 1.17-142.35 0.07-284.7 0.06-427.06 0.04-68.9-0.01-131.24-53.85-141.31-122.17-1.11-7.54-1.74-15.22-1.75-22.83-0.12-71.27-0.07-142.56-0.07-213.86z"  /><path  d="M354.6 634.9c0.72-8.59 3.49-15.77 8.92-21.97 1.73-1.98 3.51-3.92 5.37-5.77 146.48-146.5 292.99-292.96 439.4-439.53 9.95-9.96 20.87-15.7 35.28-12.54 24.75 5.42 34.72 36.15 17.77 54.92-0.8 0.89-1.67 1.71-2.52 2.56-148.35 148.35-296.7 296.71-445.07 445.05-17.07 17.06-43.95 13.6-54.47-7.2-2.39-4.75-3.16-10.33-4.68-15.52z"  /></svg>