<?xml version="1.0" standalone="no"?><!DOCTYPE svg PUBLIC "-//W3C//DTD SVG 1.1//EN" "http://www.w3.org/Graphics/SVG/1.1/DTD/svg11.dtd"><svg class="icon" width="30px" height="30.00px" viewBox="0 0 1024 1024" version="1.1" xmlns="http://www.w3.org/2000/svg"><path  d="M512 97.76c227.18-1.08 416.44 186.32 414.34 418.27-2.04 224.29-186.41 413.29-420.41 410.18-227.38-3.03-412.84-190.85-408.2-422.92C102.26 276.96 288.47 96.84 512 97.76z m65.58 413.19c2.83-2.05 5.3-3.39 7.21-5.29 32.89-32.79 65.78-65.58 98.54-98.5 20.16-20.26 20.72-49.55 1.55-68.49-18.98-18.75-47.9-17.88-67.85 2.07-33.02 33.01-66.03 66.03-99.06 99.04-1.87 1.87-3.87 3.6-7.22 6.7-1.92-2.69-3.24-5.18-5.15-7.1-33.13-33.25-66.36-66.41-99.52-99.62-12.6-12.62-27.71-17.35-44.95-13.18-17.58 4.25-29.21 15.76-34.12 33.04-4.94 17.4-0.43 32.93 12.36 45.77 33.31 33.43 66.72 66.75 100.07 100.13 2.03 2.03 3.93 4.19 7.18 7.67-2.88 2.07-5.37 3.4-7.28 5.31-33.42 33.31-66.83 66.64-100.12 100.09-16.16 16.24-18.64 39.95-6.49 58.71 16.66 25.72 51.33 28.9 74 6.43 33.16-32.87 66.07-65.99 99.09-99 1.9-1.9 3.9-3.7 6.2-5.87 2.23 2.11 4.22 3.9 6.1 5.79 32.5 32.48 64.98 64.98 97.49 97.45 2.46 2.45 4.96 4.9 7.7 7.01 26.28 20.25 64.84 7.59 73.63-24.41 5.13-18.66-0.19-34.65-13.83-48.23-34.65-34.55-69.2-69.19-105.53-105.52z" /></svg>